<svg width="264" height="38" viewBox="0 0 264 38" fill="none" xmlns="http://www.w3.org/2000/svg">
<path d="M232.231 4.92925C232.231 2.33019 233.036 1.43396 234.378 1.43396C235.721 1.43396 236.795 1.9717 238.047 4.92925L245.654 22.2264V33.1604C245.654 35.7594 244.58 36.4764 241.627 36.8349V37.5519H255.677V36.8349C252.635 36.4764 251.65 35.6698 251.65 33.1604V22.2264L258.988 5.5566C260.42 2.33019 261.852 1.61321 264 1.25472V0.537736H253.708V1.25472C257.199 1.61321 258.452 2.59906 257.467 4.92925L251.024 19.717L244.401 4.57075C243.506 2.50943 244.043 1.88208 247.892 1.34434V0.627358H225.787V1.34434C229.277 1.88208 230.351 2.50943 230.351 5.01887V25.2736L214.153 0.627358H206.188V1.34434C208.784 1.70283 209.589 2.50943 209.589 5.01887V33.25C209.589 35.8491 208.873 36.7453 207.978 36.7453C207.173 36.7453 206.725 36.3868 205.562 33.25L193.57 0.448113H192.854L181.31 31.816C180.057 35.3113 178.088 36.4764 176.119 36.9245V37.6415H186.679V36.9245C183.01 36.566 181.847 35.1321 182.652 32.8019L185.247 25.6321H196.165L198.671 32.3538C199.745 35.4009 199.119 36.2972 195.986 36.8349V37.5519H216.033V36.8349C212.542 36.2972 211.468 35.6698 211.468 33.1604V7.88679L231.067 37.6415H232.231V4.92925ZM90.9234 19C90.9234 7.5283 96.3824 1.52358 102.736 1.52358C106.495 1.52358 108.911 2.33019 110.343 3.85377C111.417 4.92925 112.222 6.45283 113.117 8.87264H113.833V1.16509C110.164 0.448113 106.853 0 103.542 0C93.9661 0 84.0325 6.18396 84.0325 19C84.0325 31.816 93.9661 38 102.915 38C106.853 38 110.343 37.3726 113.654 36.3868L114.728 29.1274L114.102 28.9481C113.296 30.4717 112.312 31.816 111.238 32.9811C108.911 35.3113 105.779 36.566 102.647 36.566C96.5614 36.4764 90.9234 30.6509 90.9234 19ZM170.302 20.0755C169.497 20.0755 168.423 19.9858 167.349 19.8066V1.88208H170.302C175.224 1.88208 177.372 4.48113 177.372 10.934C177.372 17.4764 175.135 20.0755 170.302 20.0755ZM55.3058 0.537736V9.41038H56.0217C57.0956 3.76415 59.3329 1.9717 63.0915 1.9717H64.8814V33.1604C64.8814 35.7594 63.8075 36.4764 60.8542 36.8349V37.5519H74.9044V36.8349C71.8617 36.4764 70.8773 35.6698 70.8773 33.1604V1.88208H72.6671C76.4258 1.88208 78.6631 3.67453 79.737 9.32075H80.4529V0.448113H55.3058V0.537736ZM44.1193 38C50.2047 38 56.6481 34.5047 56.6481 27.3349C56.6481 23.1226 54.4109 19.6274 50.4732 17.4764L43.4929 13.6226C39.8237 11.5613 38.7498 9.67924 38.7498 6.99057C38.7498 3.9434 40.9871 1.52358 45.1932 1.52358C47.2515 1.52358 48.7729 2.06132 50.0258 3.22642C51.0997 4.30189 52.1736 6.09434 53.158 9.32075H53.7844V1.16509C51.2786 0.448113 48.6834 0 45.6407 0C39.6447 0 35.1702 3.76415 35.1702 10.1274C35.1702 14.1604 37.4075 17.8349 41.0766 19.9858L47.52 23.5708C51.1892 25.6321 52.3525 27.6038 52.3525 30.5613C52.3525 34.0566 48.7729 36.566 44.8353 36.566C42.24 36.566 40.0922 35.6698 38.5709 34.1462C37.5864 33.1604 36.5125 31.6368 35.7966 29.6651H40.0027V28.9481C38.8393 28.6792 38.1234 28.5 37.139 26.1698L28.9058 6.54245H28.1898L20.1356 25.7217C19.0617 28.3208 18.3458 28.7689 17.0929 28.9481V29.6651H24.2522V28.9481C21.657 28.6792 20.941 27.4245 21.5675 25.8113L22.8203 22.7642H30.0692L31.68 26.5283C32.3959 28.2311 31.322 28.6792 28.7268 28.8585V29.5755H34.4542V36.6557C37.318 37.4623 40.9871 38 44.1193 38ZM135.043 37.6415L145.692 7.97641L146.498 33.25C146.587 35.7594 145.603 36.4764 142.56 36.8349V37.5519H171.913V36.8349C168.423 36.2972 167.349 35.6698 167.349 33.1604V21.2406C168.513 21.4198 169.676 21.5094 170.571 21.5094C177.641 21.5094 183.726 18.9104 183.726 11.0236C183.726 3.13679 177.641 0.537736 170.571 0.537736H157.953V1.25472C160.548 1.61321 161.353 2.41981 161.353 4.92925V33.1604C161.353 35.7594 160.279 36.8349 157.326 36.8349H157.237C154.104 36.8349 152.762 35.6698 152.673 33.25L151.599 5.01887C151.509 2.41981 152.404 1.61321 155.178 1.25472V0.537736H146.498L137.012 27.1557L127.525 0.537736H118.218V1.25472C120.993 1.61321 121.887 2.50943 121.798 5.01887L120.814 32.0849C120.724 34.7736 119.292 36.3868 116.697 36.8349V37.5519H126.541V36.8349C124.035 36.4764 122.603 34.8632 122.693 32.0849L123.498 7.43868L134.327 37.5519L135.043 37.6415ZM106.495 29.8443C111.238 29.8443 117.323 25.6321 117.323 19C117.323 12.4575 111.327 8.15566 106.495 8.15566C101.752 8.15566 95.6664 12.3679 95.6664 19C95.6664 25.5425 101.662 29.8443 106.495 29.8443ZM106.495 9.67925C109.538 9.67925 111.596 12.1887 111.596 19C111.596 25.9009 109.448 28.3208 106.495 28.3208C103.452 28.3208 101.394 25.8113 101.394 19C101.394 12.0991 103.452 9.67925 106.495 9.67925ZM195.718 24.1085H185.784L190.706 10.4858L195.718 24.1085ZM29.6217 21.3302H23.5363L26.579 13.8915L29.6217 21.3302ZM17.9878 23.2123H18.7037V12.0991H17.9878C16.8244 16.0425 15.661 16.9387 13.5132 16.9387H9.39661V1.88208H15.9295C19.6881 1.88208 21.9254 3.67453 22.9993 9.32075H23.7153V0.448113H0V1.16509C2.59525 1.52358 3.40068 2.33019 3.40068 4.83962V33.0708C3.40068 35.6698 2.59525 36.3868 0 36.7453V37.4623H13.9607V36.7453C10.4705 36.2075 9.39661 35.5802 9.39661 33.0708V18.283H13.5132C15.5715 18.3726 16.8244 19.2689 17.9878 23.2123Z" fill="white" style="fill:white;fill-opacity:1;"/>
</svg>
